<?xml version="1.0" encoding="UTF-8"?>
<svg version="1.1" xmlns="http://www.w3.org/2000/svg" width="1024" height="1024">
<path d="M0 0 C4.48818619 3.82686209 8.47372473 8.20716095 9.359375 14.2109375 C9.52602531 21.07300929 8.51300238 25.45159459 3.98828125 30.6953125 C-1.32516232 35.74308389 -6.12799905 37.17866734 -13.3359375 37.0078125 C-19.90013903 36.24119042 -25.37159659 33.16649162 -30.88671875 29.6953125 C-42.80201595 22.28343472 -56.74751644 19.92462434 -70.41796875 22.94140625 C-76.13178994 24.60220066 -82.08757572 26.76027461 -85.57421875 31.8203125 C-88.30866959 37.28921417 -88.9368641 41.86205486 -87.01171875 47.7578125 C-78.26129716 60.60999421 -59.2641429 62.82855765 -45.04614258 66.09936523 C-30.1643891 69.54659162 -15.2134833 74.17793615 -3.01171875 83.6953125 C-3.01171875 84.3553125 -3.01171875 85.0153125 -3.01171875 85.6953125 C-2.43292969 85.94410156 -1.85414063 86.19289063 -1.2578125 86.44921875 C7.79440056 91.47122912 12.00299495 101.71158992 15.1015625 111.05078125 C18.40749986 124.6386207 15.75965889 139.07318637 8.78125 151.03125 C-1.9159895 166.92562329 -17.56751358 176.29072619 -36.01171875 180.6953125 C-63.69095064 186.04278211 -92.57537266 181.97936021 -117.01171875 167.6953125 C-123.33563303 163.33282618 -130.49678709 158.24010749 -133.01171875 150.6953125 C-133.73750369 143.69667204 -133.70187582 138.10244125 -129.4375 132.3125 C-125.01318995 127.29424147 -120.49189538 124.69138725 -113.82421875 124.2578125 C-105.59542786 124.46284882 -99.18496803 129.423258 -92.91796875 134.28515625 C-80.75470751 143.2829786 -63.61400539 145.99289949 -48.88671875 144.1328125 C-41.16940923 142.59141958 -33.75390835 139.62881766 -28.32421875 133.8203125 C-26.07163715 128.45702299 -25.08982637 124.11923006 -27.32421875 118.5703125 C-33.436348 108.20802716 -47.33811955 106.25308248 -58.09277344 103.44091797 C-61.03370631 102.68969607 -63.97872711 101.9572793 -66.92578125 101.23046875 C-89.08151077 95.73315497 -109.47216473 88.53579584 -122.76171875 68.7578125 C-129.93142126 56.77686225 -130.52535958 41.88557162 -128.515625 28.35546875 C-124.63876584 13.08896685 -115.53699342 0.74813288 -102.01171875 -7.3046875 C-70.81149847 -23.13817098 -28.45123269 -21.32647022 0 0 Z " fill="#EC988D" transform="translate(432.01171875,417.3046875)"/>
<path d="M0 0 C1.36999397 1.14803964 2.72509798 2.31415249 4.0625 3.5 C4.72121094 4.05429687 5.37992188 4.60859375 6.05859375 5.1796875 C11.16523155 9.7873399 13.76884373 14.63631805 14.1875 21.5703125 C13.76488368 28.30576006 10.10305862 33.85343446 5.25 38.375 C-0.19771439 42.00680959 -5.4644816 43.14380004 -11.9375 42.03125 C-17.42919912 40.57251742 -21.55847168 37.98103472 -25.6875 34.125 C-37.31180853 23.58623001 -52.77898718 20.68549628 -68.05078125 21.21875 C-84.06073813 22.37725944 -97.08829941 28.64117349 -107.9375 40.5 C-117.4112371 52.84403291 -121.35031795 66.39363131 -121.25 81.8125 C-121.24436035 82.72894287 -121.2387207 83.64538574 -121.23291016 84.58959961 C-120.95339378 100.28818022 -116.36629391 113.80157255 -105.33984375 125.25 C-92.11771294 137.63365422 -76.35468677 141.05777659 -58.7265625 140.78125 C-44.8946147 140.22238342 -32.94653967 135.90902362 -23.3125 125.875 C-22.45398438 124.93398438 -21.59546875 123.99296875 -20.7109375 123.0234375 C-15.80304012 118.55794214 -10.71562388 116.89732223 -4.20703125 117.15234375 C1.17108259 117.97618563 5.38583145 120.40831167 8.9375 124.5 C13.22263384 130.54960071 13.9767818 135.11692866 13.0625 142.5 C9.47881573 154.56082573 -0.99850356 162.60474061 -11.44921875 168.68359375 C-38.62618008 182.83509097 -70.5275546 184.24698531 -99.625 175.3125 C-122.98334882 166.89552569 -143.09023015 150.39129446 -153.81738281 127.63330078 C-165.88875407 100.39265733 -166.22586316 71.22892734 -155.83325195 43.42211914 C-146.37946973 19.46457197 -127.40646233 -0.18953648 -104.0625 -10.8125 C-71.39923765 -24.06929193 -28.77124243 -21.71230816 0 0 Z " fill="#EB978C" transform="translate(625.9375,419.5)"/>
<path d="M0 0 C1.56584839 0.87628052 1.56584839 0.87628052 3.16333008 1.77026367 C6.38935867 3.58036614 9.60145171 5.41348306 12.8125 7.25 C14.69712287 8.31520774 16.58250863 9.37906714 18.46875 10.44140625 C21.24875213 12.00868708 24.02743436 13.57808629 26.80224609 15.15454102 C34.70858762 19.6457133 42.6602861 24.05106503 50.625 28.4375 C51.87183537 29.12465779 53.11866163 29.81183211 54.36547852 30.49902344 C59.66404622 33.41849776 64.96484444 36.3338418 70.26953125 39.2421875 C98.47298107 54.74438712 98.47298107 54.74438712 104.125 67.125 C105.46038795 73.19494524 104.70349187 78.32238203 101.625 83.75 C94.19774123 93.85107193 79.99061749 99.4577943 69.1953125 105.3125 C63.67658834 108.31062397 58.2109907 111.39826651 52.75 114.5 C43.1642133 119.93761337 33.53888398 125.30108908 23.8984375 130.64111328 C15.39855943 135.3544375 6.93145713 140.12327241 -1.50390625 144.95117188 C-5.80445667 147.39902981 -10.12864287 149.79608943 -14.515625 152.0859375 C-15.67626465 152.69381104 -15.67626465 152.69381104 -16.86035156 153.31396484 C-22.14147839 155.43816126 -27.74970917 155.04556785 -33 153 C-38.05216979 150.22625972 -41.76178911 147.58656395 -44.1875 142.25 C-45.58892401 136.14379539 -45.24208123 131.7747119 -42.1875 126.25 C-39.34700874 122.24262403 -36.67709848 120.07969168 -32.3671875 117.75390625 C-31.79993454 117.44394211 -31.23268158 117.13397797 -30.64823914 116.81462097 C-28.791764 115.80349705 -26.92739081 114.80800325 -25.0625 113.8125 C-23.75591707 113.10478551 -22.44985285 112.39611263 -21.14428711 111.68652344 C-17.80657745 109.87582688 -14.46213519 108.077994 -11.11529541 106.28424072 C-8.16093142 104.69925742 -5.21153909 103.10514277 -2.26171875 101.51171875 C2.03097544 99.19512271 6.32677826 96.88444748 10.625 94.578125 C19.19365342 89.97624141 27.72781221 85.31132502 36.26123047 80.64453125 C40.77655044 78.17644439 45.2946293 75.71341374 49.8125 73.25 C47.59535638 70.8262629 45.40918459 69.32914333 42.515625 67.7890625 C41.65171143 67.32459717 40.78779785 66.86013184 39.89770508 66.3815918 C38.9620874 65.8844165 38.02646973 65.38724121 37.0625 64.875 C35.04996193 63.79188559 33.03826817 62.70720116 31.02734375 61.62109375 C29.99335449 61.06276855 28.95936523 60.50444336 27.89404297 59.92919922 C22.15759261 56.80328371 16.48519293 53.56499215 10.80737305 50.33422852 C5.43929099 47.28524511 0.05357367 44.27301494 -5.359375 41.3046875 C-6.5805147 40.63327338 -7.80162485 39.96180548 -9.02270508 39.2902832 C-11.36286753 38.00360878 -13.70678842 36.72480764 -16.0534668 35.44995117 C-34.44389875 25.33817913 -34.44389875 25.33817913 -37.1875 16.25 C-38.17987359 10.93666641 -37.06275613 6.75133934 -34.453125 2.07421875 C-25.26470215 -11.16958826 -11.7179419 -6.76823043 0 0 Z " fill="#EB978C" transform="translate(791.1875,429.75)"/>
<path d="M0 0 C5.25612525 2.26750525 9.89583419 5.69984747 12.40625 10.953125 C14.12528018 16.87925535 14.08058895 22.40885163 11.1953125 27.90234375 C7.51819179 33.41055231 2.01389769 36.03833071 -3.6875 39.125 C-4.8314624 39.7646167 -5.9754248 40.4042334 -7.15405273 41.06323242 C-10.75329719 43.07211521 -14.37384913 45.04020028 -18 47 C-19.15081055 47.62310059 -20.30162109 48.24620117 -21.48730469 48.88818359 C-25.93957165 51.29276465 -30.3956146 53.6899653 -34.86010742 56.07177734 C-41.66294473 59.70707105 -48.35781931 63.47306311 -54.9765625 67.43237305 C-62.87438214 72.15076854 -70.93871373 76.56864965 -79 81 C-69.01775437 86.55905513 -59.0234758 92.09609127 -49.01873779 97.61456299 C-47.17441394 98.6322206 -45.33057346 99.6507495 -43.48681641 100.66943359 C-37.65742743 103.88880972 -31.82416242 107.10040161 -25.97465515 110.28311157 C-23.34275332 111.71575317 -20.71335593 113.15295716 -18.08413696 114.59051514 C-16.83731182 115.2705724 -15.5892758 115.94841517 -14.3399353 116.62384033 C6.53500947 127.91174981 6.53500947 127.91174981 9 136 C9.83423237 141.88307621 9.79959583 147.44621195 6.41015625 152.5 C2.11804262 157.06557239 -3.36045471 159.76846094 -9.5625 160.3125 C-18.65222838 160.17026363 -27.00240184 154.50389826 -34.625 150.0625 C-42.77328549 145.38182474 -50.9696105 140.81779482 -59.25 136.375 C-67.09893691 132.15280027 -74.86518426 127.82479274 -82.54980469 123.31079102 C-87.25888342 120.55521466 -92.00674826 117.88081575 -96.79296875 115.26171875 C-97.38717117 114.93562622 -97.9813736 114.60953369 -98.59358215 114.27355957 C-101.52421394 112.66563774 -104.4581815 111.06513134 -107.3996582 109.47705078 C-128.73772458 97.78682625 -128.73772458 97.78682625 -133 85 C-133.65596032 78.57158887 -132.11321545 73.54779659 -129 68 C-122.78206412 60.95532667 -114.68947837 56.71505358 -106.5 52.375 C-105.21191906 51.68062831 -103.92457721 50.984884 -102.63793945 50.2878418 C-100.67109611 49.22264237 -98.70379016 48.1584127 -96.73396301 47.09873962 C-90.50725279 43.74867821 -84.34501185 40.28791448 -78.1875 36.8125 C-69.14583221 31.72790671 -60.0470655 26.75931552 -50.9128418 21.84326172 C-42.76408146 17.44504735 -34.69676813 12.91110198 -26.65966797 8.31225586 C-9.11392819 -1.69591561 -9.11392819 -1.69591561 0 0 Z " fill="#EB978C" transform="translate(268,422)"/>
<path d="M0 0 C4.42769195 2.47455838 7.46802749 5.81105499 9.75 10.375 C10.79901177 19.21638218 8.45212413 26.39318085 5.3125 34.5625 C4.86092529 35.78066406 4.40935059 36.99882812 3.9440918 38.25390625 C2.56675563 41.96893305 1.1587544 45.67177435 -0.25 49.375 C-1.05857464 51.5268621 -1.86593454 53.67918118 -2.671875 55.83203125 C-3.80340731 58.85218859 -4.93628353 61.87177714 -6.07519531 64.88916016 C-8.27101477 70.71415444 -10.40002818 76.55533595 -12.4375 82.4375 C-15.76568569 92.04531873 -19.1876531 101.6183209 -22.625 111.1875 C-23.06631256 112.4162233 -23.06631256 112.4162233 -23.51654053 113.66976929 C-29.40380145 130.0558134 -35.32370562 146.43007832 -41.25415039 162.80053711 C-45.74182036 175.18959027 -45.74182036 175.18959027 -50.1875 187.59375 C-50.6002417 188.74955566 -51.0129834 189.90536133 -51.43823242 191.09619141 C-52.14976213 193.09218289 -52.85860228 195.08913696 -53.5637207 197.08740234 C-59.15323827 212.75930558 -59.15323827 212.75930558 -63.25 217.3125 C-63.724375 217.85777344 -64.19875 218.40304687 -64.6875 218.96484375 C-68.5339997 222.43630973 -73.14729757 223.44686905 -78.25 223.375 C-83.6589335 222.2932133 -88.41205781 220.43225317 -92.25 216.375 C-95.49733152 211.48263869 -96.93008754 207.29189229 -96.25 201.375 C-95.26728174 197.69882588 -93.95522292 194.16214714 -92.62890625 190.59765625 C-92.2507225 189.5546788 -91.87253876 188.51170135 -91.4828949 187.43711853 C-90.2698594 184.10000137 -89.04135467 180.76881989 -87.8125 177.4375 C-87.02048458 175.26403594 -86.22946017 173.09021049 -85.43945312 170.91601562 C-81.24920098 159.4110318 -76.96821362 147.94106523 -72.65562439 136.48149109 C-68.5718758 125.60806814 -64.60972495 114.69089258 -60.65151978 103.77127075 C-58.46450916 97.73841746 -56.27290784 91.70723141 -54.08203125 85.67578125 C-53.65719955 84.50589157 -53.23236786 83.33600189 -52.79466248 82.13066101 C-46.02922596 63.50235506 -39.23242872 44.8864236 -32.23950195 26.34204102 C-31.73616333 25.00677368 -31.73616333 25.00677368 -31.22265625 23.64453125 C-30.8982959 22.78432373 -30.57393555 21.92411621 -30.23974609 21.0378418 C-28.83870376 17.26843658 -27.49305196 13.47949115 -26.15307617 9.68798828 C-24.01557759 4.21335689 -20.67041154 1.47518706 -15.45703125 -0.89453125 C-10.05254185 -2.68327376 -5.17420437 -2.31477564 0 0 Z " fill="#EB978C" transform="translate(739.25,391.625)"/>
<path d="M0 0 C1.45880109 0.14107747 2.91703551 0.28802415 4.375 0.4375 C5.59316406 0.55931641 5.59316406 0.55931641 6.8359375 0.68359375 C9 1 9 1 11 2 C11 2.66 11 3.32 11 4 C17.85475206 4.84355274 24.66330371 5.2839752 31.5625 5.5625 C32.57119141 5.60568359 33.57988281 5.64886719 34.61914062 5.69335938 C37.07932575 5.79829618 39.53959175 5.90045701 42 6 C42 6.33 42 6.66 42 7 C9.67075668 8.03593829 9.67075668 8.03593829 0 0 Z " fill="#ED8370" transform="translate(532,556)"/>
<path d="M0 0 C-0.73319458 0.43082886 -0.73319458 0.43082886 -1.48120117 0.87036133 C-3.71677212 2.18417289 -5.95213764 3.49833358 -8.1875 4.8125 C-8.95642578 5.26431641 -9.72535156 5.71613281 -10.51757812 6.18164062 C-11.26845703 6.62314453 -12.01933594 7.06464844 -12.79296875 7.51953125 C-13.52177246 7.94572754 -14.25057617 8.37192383 -15.00146484 8.81103516 C-16.66469429 9.80052054 -18.29932586 10.83788303 -19.92578125 11.88671875 C-20.61027344 12.25410156 -21.29476562 12.62148438 -22 13 C-22.66 12.67 -23.32 12.34 -24 12 C-23.01 11.67 -22.02 11.34 -21 11 C-20.67 10.01 -20.34 9.02 -20 8 C-18.07421875 6.61328125 -18.07421875 6.61328125 -15.6875 5.3125 C-14.90761719 4.87550781 -14.12773437 4.43851562 -13.32421875 3.98828125 C-11 3 -11 3 -7 3 C-6.67 2.01 -6.34 1.02 -6 0 C-3.50907189 -1.24546405 -2.58919267 -0.7767578 0 0 Z " fill="#F29C8C" transform="translate(274,455)"/>
<path d="M0 0 C1.23922223 3.71766668 0.57018942 5.43889537 -0.4375 9.1875 C-0.72496094 10.27417969 -1.01242187 11.36085938 -1.30859375 12.48046875 C-1.65083984 13.72763672 -1.65083984 13.72763672 -2 15 C-2.66 15 -3.32 15 -4 15 C-4.66 20.28 -5.32 25.56 -6 31 C-8 29 -8 29 -8.375 26.08984375 C-8.21582272 20.60817615 -5.94698307 15.61742058 -4 10.5625 C-3.6184375 9.54478516 -3.236875 8.52707031 -2.84375 7.47851562 C-1.90595809 4.98164465 -0.95785999 2.48922592 0 0 Z " fill="#F3AEA1" transform="translate(651,571)"/>
<path d="M0 0 C1.21205531 3.63616593 0.66898648 4.58869753 -0.65234375 8.10546875 C-1.01650391 9.08837891 -1.38066406 10.07128906 -1.75585938 11.08398438 C-2.34077148 12.62022461 -2.34077148 12.62022461 -2.9375 14.1875 C-3.32357422 15.22326172 -3.70964844 16.25902344 -4.10742188 17.32617188 C-5.06342444 19.88731454 -6.02789257 22.44493599 -7 25 C-7.33 25 -7.66 25 -8 25 C-8.27908468 19.57878002 -7.42721053 15.62142765 -5.5 10.5625 C-5.26152344 9.92634766 -5.02304687 9.29019531 -4.77734375 8.63476562 C-4.19509076 7.08597268 -3.59898931 5.54239747 -3 4 C-2.34 4 -1.68 4 -1 4 C-0.67 2.68 -0.34 1.36 0 0 Z " fill="#F29F90" transform="translate(699,546)"/>
<path d="M0 0 C0.66 0.33 1.32 0.66 2 1 C0.23885299 3.00932223 -1.53286463 5.00716745 -3.3125 7 C-3.81201172 7.57234375 -4.31152344 8.1446875 -4.82617188 8.734375 C-6.15598061 10.21389731 -7.57387123 11.61308462 -9 13 C-9.99 13 -10.98 13 -12 13 C-12.99 13.495 -12.99 13.495 -14 14 C-12.55575365 10.76138697 -10.74227753 8.38030837 -8.375 5.75 C-7.42753906 4.69039063 -7.42753906 4.69039063 -6.4609375 3.609375 C-5.97882813 3.07828125 -5.49671875 2.5471875 -5 2 C-5 2.99 -5 3.98 -5 5 C-3.35 3.35 -1.7 1.7 0 0 Z " fill="#F0A296" transform="translate(497,428)"/>
<path d="M0 0 C0.66 0.33 1.32 0.66 2 1 C0.7934375 2.2375 0.7934375 2.2375 -0.4375 3.5 C-3.57804904 7.26332081 -3.84581413 10.14314518 -4 15 C-3.64933615 17.85622487 -3.64933615 17.85622487 -3 20 C-3.66 19.67 -4.32 19.34 -5 19 C-5 18.34 -5 17.68 -5 17 C-5.66 17 -6.32 17 -7 17 C-7.05447047 15.58376784 -7.09300508 14.16691809 -7.125 12.75 C-7.14820313 11.96109375 -7.17140625 11.1721875 -7.1953125 10.359375 C-6.85506827 6.24922476 -5.48137839 4.41261005 -2.375 1.75 C-1.59125 1.1725 -0.8075 0.595 0 0 Z " fill="#EA8D80" transform="translate(755,553)"/>
<path d="M0 0 C0.66 0.33 1.32 0.66 2 1 C-18.63334327 11.71290226 -18.63334327 11.71290226 -26 11 C-22.73454239 9.11608215 -19.71888239 8.50712033 -16 8 C-16 7.34 -16 6.68 -16 6 C-12.96201364 4.98733788 -9.92501316 3.97600421 -6.875 3 C-4.04818141 2.09749774 -4.04818141 2.09749774 -1.75 0.8125 C-1.1725 0.544375 -0.595 0.27625 0 0 Z " fill="#F4B2A6" transform="translate(614,586)"/>
<path d="M0 0 C5.61 0 11.22 0 17 0 C17 0.99 17 1.98 17 3 C14.58489385 4.20755308 12.88261951 4.23572748 10.1875 4.3125 C9.33542969 4.34988281 8.48335937 4.38726563 7.60546875 4.42578125 C5 4 5 4 0 0 Z " fill="#EF9283" transform="translate(757,580)"/>
<path d="M0 0 C4.59556861 1.06843752 8.35281851 3.21169111 12.375 5.625 C13.43460938 6.25664062 14.49421875 6.88828125 15.5859375 7.5390625 C16.38257813 8.02117187 17.17921875 8.50328125 18 9 C16 10 16 10 13.6875 9.29296875 C12.800625 8.92816406 11.91375 8.56335938 11 8.1875 C10.113125 7.83042969 9.22625 7.47335937 8.3125 7.10546875 C6 6 6 6 4 4 C3.01 4.495 3.01 4.495 2 5 C-0.625 3.5625 -0.625 3.5625 -3 2 C-2.01 1.34 -1.02 0.68 0 0 Z " fill="#F1AC9F" transform="translate(859,469)"/>
<path d="M0 0 C1.29744141 0.43699219 1.29744141 0.43699219 2.62109375 0.8828125 C4.75189366 1.58733131 6.88931561 2.27240298 9.03515625 2.9296875 C19.06003752 6.06003752 19.06003752 6.06003752 23 10 C18.64845617 9.4163354 14.9734478 8.34353261 10.9375 6.625 C9.93589844 6.20476562 8.93429687 5.78453125 7.90234375 5.3515625 C5.13021633 4.0606391 2.55544509 2.67862265 0 1 C0 0.67 0 0.34 0 0 Z " fill="#F5AC9F" transform="translate(329,504)"/>
<path d="M0 0 C0.66 0.33 1.32 0.66 2 1 C1.57589844 1.37769531 1.15179688 1.75539063 0.71484375 2.14453125 C-4.60410239 7.13615763 -8.28346361 12.75305585 -12 19 C-13 17 -13 17 -12.5390625 15.1171875 C-9.78741757 8.367426 -5.68334522 4.45681131 0 0 Z " fill="#EE8571" transform="translate(322,417)"/>
<path d="M0 0 C1.31329673 3.93989019 0.12217882 6.07237412 -1 10 C-0.67 10.99 -0.34 11.98 0 13 C-0.99 14.485 -0.99 14.485 -2 16 C-2 15.34 -2 14.68 -2 14 C-2.66 14 -3.32 14 -4 14 C-4.12375 14.94875 -4.2475 15.8975 -4.375 16.875 C-5 20 -5 20 -7 22 C-5.56006454 14.27670981 -2.94467554 7.2717751 0 0 Z " fill="#ED9F94" transform="translate(716,491)"/>
<path d="M0 0 C4.42323682 0.58265272 7.5155864 2.26766211 11.3125 4.5625 C12.38113281 5.20316406 13.44976563 5.84382813 14.55078125 6.50390625 C15.35902344 6.99761719 16.16726563 7.49132812 17 8 C15 9 15 9 12.7578125 8.29296875 C11.45457031 7.74576172 11.45457031 7.74576172 10.125 7.1875 C8.82949219 6.65189453 8.82949219 6.65189453 7.5078125 6.10546875 C6.68023438 5.74066406 5.85265625 5.37585938 5 5 C4.25492188 4.68675781 3.50984375 4.37351562 2.7421875 4.05078125 C1 3 1 3 0 0 Z " fill="#F1A293" transform="translate(777,424)"/>
<path d="M0 0 C1.21343812 3.64031437 0.6723256 5.31069759 -0.25 9 C-0.50265625 10.051875 -0.7553125 11.10375 -1.015625 12.1875 C-1.98292872 14.95122492 -2.75792705 16.18618818 -5 18 C-6 16 -6 16 -4.78515625 12.3046875 C-4.21866415 10.82514342 -3.64408111 9.34867819 -3.0625 7.875 C-2.77181641 7.12089844 -2.48113281 6.36679687 -2.18164062 5.58984375 C-1.46125002 3.72391398 -0.73149596 1.8616042 0 0 Z " fill="#F09280" transform="translate(727,465)"/>
<path d="M0 0 C1.21236328 0.01353516 1.21236328 0.01353516 2.44921875 0.02734375 C3.37154297 0.04474609 3.37154297 0.04474609 4.3125 0.0625 C4.3125 0.7225 4.3125 1.3825 4.3125 2.0625 C4.9725 2.3925 5.6325 2.7225 6.3125 3.0625 C1.3625 3.3925 -3.5875 3.7225 -8.6875 4.0625 C-8.3575 3.0725 -8.0275 2.0825 -7.6875 1.0625 C-4.80538698 0.10179566 -2.98899956 -0.04331883 0 0 Z " fill="#F29989" transform="translate(318.6875,541.9375)"/>
<path d="M0 0 C1.41610894 2.83221788 0.35753669 4.58314397 -0.59179688 7.45898438 C-0.82962891 8.15314453 -1.06746094 8.84730469 -1.3125 9.5625 C-1.53873047 10.26052734 -1.76496094 10.95855469 -1.99804688 11.67773438 C-3.74672012 16.87336006 -3.74672012 16.87336006 -6 18 C-5.71561048 16.10306139 -5.42216208 14.20747973 -5.125 12.3125 C-4.96257813 11.25675781 -4.80015625 10.20101563 -4.6328125 9.11328125 C-4.03611148 6.17765959 -3.3091035 3.69093498 -2 1 C-1.34 0.67 -0.68 0.34 0 0 Z " fill="#F09180" transform="translate(687,477)"/>
<path d="M0 0 C0.66 0.33 1.32 0.66 2 1 C-0.23398163 3.72384266 -1.36988362 4.90019633 -4.91015625 5.4609375 C-5.95042969 5.43257813 -6.99070312 5.40421875 -8.0625 5.375 C-9.10535156 5.36210937 -10.14820313 5.34921875 -11.22265625 5.3359375 C-14 5 -14 5 -17 3 C-16.10796875 2.95101563 -15.2159375 2.90203125 -14.296875 2.8515625 C-12.54117187 2.73941406 -12.54117187 2.73941406 -10.75 2.625 C-9.00976562 2.52058594 -9.00976562 2.52058594 -7.234375 2.4140625 C-4.25278413 2.03236125 -2.59705364 1.37000536 0 0 Z " fill="#F08877" transform="translate(431,448)"/>
<path d="M0 0 C3.51790906 -0.07035818 6.77666722 -0.03865375 10.25 0.5625 C13.08021919 1.22956735 13.08021919 1.22956735 16 0 C16.33 0.99 16.66 1.98 17 3 C17.99 3 18.98 3 20 3 C20.33 3.99 20.66 4.98 21 6 C19.98292969 5.70996094 19.98292969 5.70996094 18.9453125 5.4140625 C12.67075691 3.65857742 6.40723336 2.18137708 0 1 C0 0.67 0 0.34 0 0 Z " fill="#F3B0A5" transform="translate(570,440)"/>
<path d="M0 0 C0.33 0 0.66 0 1 0 C0.1337386 10.25835866 0.1337386 10.25835866 -2 15 C-2.99 15.33 -3.98 15.66 -5 16 C-4.39363767 10.23955788 -2.24341721 5.27985631 0 0 Z " fill="#F19483" transform="translate(705,526)"/>
<path d="M0 0 C0.33 0 0.66 0 1 0 C0.96687272 2.08400734 0.89736131 4.16745766 0.8125 6.25 C0.77769531 7.41015625 0.74289062 8.5703125 0.70703125 9.765625 C-0.17217094 13.78761071 -1.60891216 14.81499284 -5 17 C-5.66 16.67 -6.32 16.34 -7 16 C-6.49339844 15.27296875 -6.49339844 15.27296875 -5.9765625 14.53125 C-2.78058336 9.72804436 -1.11178592 5.66000106 0 0 Z " fill="#F4A799" transform="translate(407,540)"/>
<path d="M0 0 C0.66 0.33 1.32 0.66 2 1 C1.74462428 3.1060986 1.47014626 5.20988754 1.1875 7.3125 C1.03667969 8.48425781 0.88585937 9.65601563 0.73046875 10.86328125 C0.00135005 13.99420274 -0.49171464 15.09645193 -3 17 C-3.33 16.34 -3.66 15.68 -4 15 C-3.273668 13.05210965 -2.54222449 11.1057502 -1.76953125 9.17578125 C-0.68946455 6.1219886 -0.3348953 3.21499489 0 0 Z " fill="#EF8E7C" transform="translate(718,485)"/>
<path d="M0 0 C-2.2863012 1.36402043 -4.57821749 2.71634274 -6.875 4.0625 C-7.85146484 4.64741211 -7.85146484 4.64741211 -8.84765625 5.24414062 C-10.53065725 6.22444533 -12.26296199 7.11898432 -14 8 C-14.66 7.67 -15.32 7.34 -16 7 C-15.01 6.67 -14.02 6.34 -13 6 C-12.67 5.01 -12.34 4.02 -12 3 C-9.78515625 1.796875 -9.78515625 1.796875 -7.0625 0.75 C-6.16660156 0.39421875 -5.27070313 0.0384375 -4.34765625 -0.328125 C-2 -1 -2 -1 0 0 Z " fill="#F3A495" transform="translate(219,486)"/>
<path d="M0 0 C0.33 0 0.66 0 1 0 C0.58846263 4.97093824 0.20399168 9.44508386 -2 14 C-2.66 14 -3.32 14 -4 14 C-4.33 14.66 -4.66 15.32 -5 16 C-3.90301833 10.30860098 -2.45946923 5.25432063 0 0 Z " fill="#F09180" transform="translate(735,443)"/>
<path d="M0 0 C0.33 0 0.66 0 1 0 C1.55353075 11.70615034 1.55353075 11.70615034 -2 16 C-2.99 15.67 -3.98 15.34 -5 15 C-4.34 12.36 -3.68 9.72 -3 7 C-2.34 7.66 -1.68 8.32 -1 9 C-0.67 6.03 -0.34 3.06 0 0 Z " fill="#F2AEA4" transform="translate(280,435)"/>
<path d="M0 0 C3.1875 1.5 3.1875 1.5 5 3 C1.93312991 3.93826619 -0.45007796 4.01788333 -3.625 3.625 C-4.40101563 3.53476562 -5.17703125 3.44453125 -5.9765625 3.3515625 C-8 3 -8 3 -10 2 C-10.99 1.67 -11.98 1.34 -13 1 C-9.08729537 -0.95635231 -4.2758022 -0.3696659 0 0 Z " fill="#F4B1A4" transform="translate(268,422)"/>
<path d="M0 0 C-1.95245185 1.19714555 -3.91214997 2.38248074 -5.875 3.5625 C-6.96554687 4.22378906 -8.05609375 4.88507812 -9.1796875 5.56640625 C-10.57574219 6.27603516 -10.57574219 6.27603516 -12 7 C-12.66 6.67 -13.32 6.34 -14 6 C-10.96095324 2.3278185 -4.86447691 -2.43223845 0 0 Z " fill="#F3A293" transform="translate(821,557)"/>
<path d="M0 0 C2.91843445 2.626591 4.94517315 5.66976339 7 9 C7 9.66 7 10.32 7 11 C7.66 11 8.32 11 9 11 C9 11.66 9 12.32 9 13 C7.25 12.875 7.25 12.875 5 12 C1.83394453 8.1102747 0.47451785 4.98243747 0 0 Z " fill="#F09483" transform="translate(476,550)"/>
<path d="M0 0 C9.0248566 1.98852772 9.0248566 1.98852772 13 5 C13.33 5.99 13.66 6.98 14 8 C9.02790438 6.23570801 4.56561939 3.6060834 0 1 C0 0.67 0 0.34 0 0 Z " fill="#F3A193" transform="translate(781,467)"/>
<path d="M0 0 C3.45201639 1.47721422 5.64961936 3.43794001 8.25 6.125 C8.95640625 6.84945313 9.6628125 7.57390625 10.390625 8.3203125 C11.18726563 9.15175781 11.18726563 9.15175781 12 10 C11.67 10.66 11.34 11.32 11 12 C9.53154413 10.95153459 8.07557901 9.88556239 6.625 8.8125 C5.81289063 8.22082031 5.00078125 7.62914062 4.1640625 7.01953125 C1.79047613 4.80446961 0.96389859 3.06646859 0 0 Z " fill="#F3A496" transform="translate(625,420)"/>
<path d="M0 0 C0.33 0 0.66 0 1 0 C0.85831863 1.43791516 0.71148957 2.8753237 0.5625 4.3125 C0.48128906 5.11300781 0.40007813 5.91351563 0.31640625 6.73828125 C0 9 0 9 -1 12 C-1.66 12 -2.32 12 -3 12 C-3.66 13.32 -4.32 14.64 -5 16 C-4.39363767 10.23955788 -2.24341721 5.27985631 0 0 Z " fill="#F18C78" transform="translate(744,418)"/>
<path d="M0 0 C4.59808129 0.53894425 7.86784369 1.76571528 11.875 4.0625 C12.84179688 4.61035156 13.80859375 5.15820312 14.8046875 5.72265625 C15.89136719 6.35494141 15.89136719 6.35494141 17 7 C15 8 15 8 12 7.125 C9 6 9 6 7 5 C7 4.34 7 3.68 7 3 C4.69 2.34 2.38 1.68 0 1 C0 0.67 0 0.34 0 0 Z " fill="#F4AEA1" transform="translate(410,407)"/>
<path d="M0 0 C6.625 -0.25 6.625 -0.25 10 2 C7.58525383 2.53160457 5.16891893 3.05054766 2.75 3.5625 C1.72712891 3.78969727 1.72712891 3.78969727 0.68359375 4.02148438 C-3.10109359 4.81149193 -5.16636213 4.95840947 -9 4 C-6.03 3.34 -3.06 2.68 0 2 C0 1.34 0 0.68 0 0 Z " fill="#EE8B79" transform="translate(351,402)"/>
<path d="M0 0 C1 2 1 2 0.29296875 4.78515625 C-0.07183594 5.86667969 -0.43664062 6.94820313 -0.8125 8.0625 C-1.16957031 9.14660156 -1.52664063 10.23070312 -1.89453125 11.34765625 C-3 14 -3 14 -5 15 C-4.744398 13.06043186 -4.46995354 11.12334011 -4.1875 9.1875 C-4.03667969 8.10855469 -3.88585937 7.02960938 -3.73046875 5.91796875 C-2.98387597 2.93559009 -2.37924316 1.85776521 0 0 Z " fill="#EF917F" transform="translate(678,502)"/>
<path d="M0 0 C1.32 0.66 2.64 1.32 4 2 C1.03312999 3.64826111 -1.65626525 4.44271087 -5 5 C-3.35 3.35 -1.7 1.7 0 0 Z M4 1 C7.3 1 10.6 1 14 1 C14 1.33 14 1.66 14 2 C10.7 2 7.4 2 4 2 C4 1.67 4 1.34 4 1 Z " fill="#F1A69C" transform="translate(309,544)"/>
<path d="M0 0 C5.85272256 0.45020943 10.08220119 3.03839227 15 6 C11.28125 7.1171875 11.28125 7.1171875 8.75 6.0625 C8.1725 5.711875 7.595 5.36125 7 5 C7 4.34 7 3.68 7 3 C4.69 2.34 2.38 1.68 0 1 C0 0.67 0 0.34 0 0 Z " fill="#F4AC9F" transform="translate(406,490)"/>
<path d="M0 0 C0.95465783 2.16967689 1.14401212 3.56328793 0.3984375 5.82421875 C-0.35870385 7.5684743 -1.17609198 9.28627131 -2 11 C-2.66 11 -3.32 11 -4 11 C-4.33 11.66 -4.66 12.32 -5 13 C-4.48474397 7.71862571 -2.74522883 4.42778844 0 0 Z " fill="#EF8F7D" transform="translate(510,467)"/>
<path d="M0 0 C0.66 0.33 1.32 0.66 2 1 C-4.07792208 7.24675325 -4.07792208 7.24675325 -7 9 C-7.99 8.67 -8.98 8.34 -10 8 C-6.7 5.36 -3.4 2.72 0 0 Z " fill="#F18C79" transform="translate(531,445)"/>
<path d="M0 0 C0 0.33 0 0.66 0 1 C-2.64 1.33 -5.28 1.66 -8 2 C-8 3.32 -8 4.64 -8 6 C-9.65 6.33 -11.3 6.66 -13 7 C-13 4 -13 4 -12 2 C-7.87393702 0.27281084 -4.45297431 -0.2120464 0 0 Z " fill="#F2ADA2" transform="translate(776,423)"/>
<path d="M0 0 C0.66 0.33 1.32 0.66 2 1 C-1.43361902 4.63559661 -4.7973607 7.36113346 -9 10 C-9.66 9.67 -10.32 9.34 -11 9 C-3.70159453 2.66514806 -3.70159453 2.66514806 0 0 Z " fill="#F4A798" transform="translate(508,416)"/>
<path d="M0 0 C1 2 1 2 0.22265625 4.6015625 C-0.16019531 5.59929687 -0.54304687 6.59703125 -0.9375 7.625 C-1.50791016 9.12933594 -1.50791016 9.12933594 -2.08984375 10.6640625 C-2.39019531 11.43492187 -2.69054687 12.20578125 -3 13 C-3.33 13 -3.66 13 -4 13 C-4.17673419 8.4932782 -4.13551182 5.03374456 -2 1 C-1.34 0.67 -0.68 0.34 0 0 Z " fill="#EE9281" transform="translate(710,414)"/>
<path d="M0 0 C0.75 1.625 0.75 1.625 1 4 C-2.136 9.712 -2.136 9.712 -6 11 C-4.54955729 6.89041233 -2.48889248 3.56741255 0 0 Z " fill="#F4A292" transform="translate(482,442)"/>
<path d="M0 0 C0 0.33 0 0.66 0 1 C-1.91666667 1.47916667 -3.83333333 1.95833333 -5.75 2.4375 C-6.81734375 2.70433594 -7.8846875 2.97117187 -8.984375 3.24609375 C-10.78645833 3.69661458 -12.58854167 4.14713542 -14.390625 4.59765625 C-14.92171875 4.73042969 -15.4528125 4.86320312 -16 5 C-15.67 4.01 -15.34 3.02 -15 2 C-9.86308839 0.00813631 -5.47549707 -0.1921227 0 0 Z " fill="#F08571" transform="translate(266,423)"/>
<path d="M0 0 C4.20626034 1.50223584 5.73900021 4.28550034 8 8 C7.67 8.66 7.34 9.32 7 10 C3.60582235 6.87378374 1.3937282 4.43458973 0 0 Z " fill="#F3A292" transform="translate(268,548)"/>
<path d="M0 0 C0.78375 0.185625 1.5675 0.37125 2.375 0.5625 C4.97089775 1.25962266 4.97089775 1.25962266 7 0 C9.625 1.4375 9.625 1.4375 12 3 C11.01 3.66 10.02 4.32 9 5 C5.1444775 4.11644276 2.52771621 3.08943092 0 0 Z " fill="#F1A99E" transform="translate(196,550)"/>
<path d="M0 0 C4.97209562 1.76429199 9.43438061 4.3939166 14 7 C12 8 12 8 10.1953125 7.6171875 C5.46426206 5.92115055 2.82966662 4.36240271 0 0 Z " fill="#F6B3A6" transform="translate(225,524)"/>
<path d="M0 0 C10.75718016 0.60574413 10.75718016 0.60574413 15 4 C15 4.33 15 4.66 15 5 C11.04170312 5.22822613 8.32148459 4.55050009 4.6875 3 C3.80449219 2.62875 2.92148437 2.2575 2.01171875 1.875 C1.34785156 1.58625 0.68398438 1.2975 0 1 C0 0.67 0 0.34 0 0 Z " fill="#F3A698" transform="translate(383,522)"/>
<path d="M0 0 C1.03159626 3.09478879 0.97482862 4.52631393 0.5625 7.6875 C0.46066406 8.49574219 0.35882812 9.30398438 0.25390625 10.13671875 C0.17011719 10.75160156 0.08632813 11.36648438 0 12 C-1.32 12.33 -2.64 12.66 -4 13 C-3.52343588 11.20763933 -3.04366502 9.41613103 -2.5625 7.625 C-2.29566406 6.62726563 -2.02882813 5.62953125 -1.75390625 4.6015625 C-1 2 -1 2 0 0 Z " fill="#F2A294" transform="translate(698,443)"/>
<path d="M0 0 C3 1 3 1 4.1875 2.75 C5.10819096 5.29960574 5.14948718 7.30923081 5 10 C2.66063182 7.87330165 1.19346152 5.93775144 0 3 C0 2.01 0 1.02 0 0 Z " fill="#EF9280" transform="translate(506,526)"/>
<path d="M0 0 C1.25955231 3.77865693 0.48087189 5.03411786 -0.9375 8.6875 C-1.31777344 9.68136719 -1.69804688 10.67523438 -2.08984375 11.69921875 C-2.39019531 12.45847656 -2.69054687 13.21773438 -3 14 C-4.44856764 9.65429709 -3.42444707 6.27334122 -2 2 C-1.34 2 -0.68 2 0 2 C0 1.34 0 0.68 0 0 Z " fill="#F3A79A" transform="translate(731,457)"/>
<path d="M0 0 C0.66 0.99 1.32 1.98 2 3 C-0.31 3.33 -2.62 3.66 -5 4 C-5.66 3.01 -6.32 2.02 -7 1 C-4.46578263 -0.26710868 -2.80561762 -0.28056176 0 0 Z " fill="#EE9F93" transform="translate(401,593)"/>
<path d="M0 0 C2.96783129 1.45668783 5.86415313 3.01232086 8.75 4.625 C9.94882812 5.29402344 9.94882812 5.29402344 11.171875 5.9765625 C11.77515625 6.31429688 12.3784375 6.65203125 13 7 C11 8 11 8 8.90625 7.36328125 C8.1121875 7.01652344 7.318125 6.66976563 6.5 6.3125 C5.30890625 5.81169922 5.30890625 5.81169922 4.09375 5.30078125 C1.68518363 3.80441446 1.01007276 2.6075248 0 0 Z " fill="#EE8370" transform="translate(324,499)"/>
<path d="M0 0 C1.35015859 4.05047576 0.62084998 6.7920168 0 11 C0.66 11 1.32 11 2 11 C2 12.65 2 14.3 2 16 C0.515625 14.84765625 0.515625 14.84765625 -1 13 C-1.328125 10.37109375 -1.328125 10.37109375 -1.25 7.4375 C-1.23453125 6.46683594 -1.2190625 5.49617188 -1.203125 4.49609375 C-1 2 -1 2 0 0 Z " fill="#ED7F6A" transform="translate(342,451)"/>
<path d="M0 0 C3.59391114 1.33488128 6.75490696 2.96022723 10 5 C8.3125 5.6875 8.3125 5.6875 6 6 C3.3125 4.75 3.3125 4.75 1 3 C0.67 2.01 0.34 1.02 0 0 Z " fill="#F2907F" transform="translate(764,456)"/>
<path d="M0 0 C0.66 0.33 1.32 0.66 2 1 C1.34 1.66 0.68 2.32 0 3 C0 3.99 0 4.98 0 6 C-2 7.6875 -2 7.6875 -4 9 C-4.25 6.75 -4.25 6.75 -4 4 C-2 1.6875 -2 1.6875 0 0 Z " fill="#F0A195" transform="translate(522,450)"/>
<path d="M0 0 C-2.33539809 1.55693206 -4.57968756 2.90200646 -7.0625 4.1875 C-7.75472656 4.55230469 -8.44695312 4.91710937 -9.16015625 5.29296875 C-9.76730469 5.52628906 -10.37445313 5.75960938 -11 6 C-11.66 5.67 -12.32 5.34 -13 5 C-8.58490204 0.69258736 -6.42286118 -0.64228612 0 0 Z " fill="#F3A99C" transform="translate(362,439)"/>
<path d="M0 0 C-0.66 0 -1.32 0 -2 0 C-2.33 1.32 -2.66 2.64 -3 4 C-4.8125 4.625 -4.8125 4.625 -7 5 C-7.99 4.34 -8.98 3.68 -10 3 C-3.375 -1.125 -3.375 -1.125 0 0 Z " fill="#F2A699" transform="translate(339,408)"/>
<path d="M0 0 C8.71428571 1.85714286 8.71428571 1.85714286 11 5 C10.01 5.495 10.01 5.495 9 6 C6.8359375 5.00390625 6.8359375 5.00390625 4.375 3.5625 C3.55773437 3.08941406 2.74046875 2.61632812 1.8984375 2.12890625 C1.27195312 1.75636719 0.64546875 1.38382813 0 1 C0 0.67 0 0.34 0 0 Z " fill="#F2A698" transform="translate(506,584)"/>
<path d="M0 0 C4.03744506 2.01872253 6.62010675 4.08100128 10 7 C8.68 7.33 7.36 7.66 6 8 C4.02 5.36 2.04 2.72 0 0 Z " fill="#EE8875" transform="translate(306,575)"/>
<path d="M0 0 C-1.28524261 0.86380259 -2.57842419 1.71580369 -3.875 2.5625 C-4.59429688 3.03816406 -5.31359375 3.51382813 -6.0546875 4.00390625 C-6.69664062 4.33261719 -7.33859375 4.66132812 -8 5 C-8.66 4.67 -9.32 4.34 -10 4 C-4.75 -1.425 -4.75 -1.425 0 0 Z " fill="#F3A191" transform="translate(796,571)"/>
<path d="M0 0 C0.66 1.32 1.32 2.64 2 4 C2.66 4 3.32 4 4 4 C6.10865385 7.47307692 6.10865385 7.47307692 5.55859375 10.140625 C5.28208984 11.06101562 5.28208984 11.06101562 5 12 C4.15885829 10.56705502 3.32734313 9.12845595 2.5 7.6875 C1.80390625 6.48673828 1.80390625 6.48673828 1.09375 5.26171875 C0 3 0 3 0 0 Z " fill="#F4ADA1" transform="translate(471,542)"/>
<path d="M0 0 C4.05281712 1.22527029 7.44360764 2.69880494 11 5 C9 6 9 6 7.08984375 5.546875 C6.37957031 5.28390625 5.66929687 5.0209375 4.9375 4.75 C4.22464844 4.49734375 3.51179687 4.2446875 2.77734375 3.984375 C1 3 1 3 0 0 Z " fill="#F4A698" transform="translate(239,532)"/>
<path d="M0 0 C1.60746056 0.42523816 3.21089836 0.86570126 4.8125 1.3125 C6.15248047 1.67794922 6.15248047 1.67794922 7.51953125 2.05078125 C10.05247738 3.0200819 11.2716496 3.95009604 13 6 C8.11063599 4.92268251 4.13096026 3.96912769 0 1 C0 0.67 0 0.34 0 0 Z " fill="#F1A292" transform="translate(164,532)"/>
<path d="M0 0 C4.31392226 0.4793247 6.16569547 1.7457985 9 5 C8.01 5.495 8.01 5.495 7 6 C5.83054208 5.19152271 4.66449539 4.37810888 3.5 3.5625 C2.8503125 3.11003906 2.200625 2.65757812 1.53125 2.19140625 C1.0259375 1.79824219 0.520625 1.40507813 0 1 C0 0.67 0 0.34 0 0 Z " fill="#EEA194" transform="translate(144,520)"/>
<path d="M0 0 C0.66 0.33 1.32 0.66 2 1 C0.8125 3.5 0.8125 3.5 -1 6 C-3.6875 6.3125 -3.6875 6.3125 -6 6 C-2.25 1.125 -2.25 1.125 0 0 Z " fill="#EE9283" transform="translate(168,471)"/>
<path d="M0 0 C0.33 0.66 0.66 1.32 1 2 C0.22265625 3.9453125 0.22265625 3.9453125 -0.9375 6.125 C-1.31777344 6.84945313 -1.69804687 7.57390625 -2.08984375 8.3203125 C-2.39019531 8.87460937 -2.69054687 9.42890625 -3 10 C-3.33 10 -3.66 10 -4 10 C-4.25 7.25 -4.25 7.25 -4 4 C-2 1.625 -2 1.625 0 0 Z " fill="#EF8E7D" transform="translate(476,454)"/>
<path d="M0 0 C-1.28524261 0.86380259 -2.57842419 1.71580369 -3.875 2.5625 C-4.59429688 3.03816406 -5.31359375 3.51382813 -6.0546875 4.00390625 C-6.69664062 4.33261719 -7.33859375 4.66132812 -8 5 C-8.66 4.67 -9.32 4.34 -10 4 C-4.75 -1.425 -4.75 -1.425 0 0 Z " fill="#F3A798" transform="translate(844,544)"/>
<path d="M0 0 C0.99 0.33 1.98 0.66 3 1 C0.69 3.64 -1.62 6.28 -4 9 C-4.66 8.67 -5.32 8.34 -6 8 C-4.02 5.36 -2.04 2.72 0 0 Z " fill="#EF8B79" transform="translate(496,426)"/>
<path d="M0 0 C1.13643966 3.40931897 0.86747764 4.00335456 -0.4375 7.1875 C-0.86869141 8.26064453 -0.86869141 8.26064453 -1.30859375 9.35546875 C-1.53675781 9.89816406 -1.76492188 10.44085938 -2 11 C-2.33 11 -2.66 11 -3 11 C-3.125 4.25 -3.125 4.25 -2 2 C-1.34 2 -0.68 2 0 2 C0 1.34 0 0.68 0 0 Z " fill="#F08F7C" transform="translate(714,402)"/>
<path d="M0 0 C0.66 0.33 1.32 0.66 2 1 C-0.36595933 3.61500768 -2.86049226 5.38999603 -6 7 C-6.66 6.67 -7.32 6.34 -8 6 C-2.25 1.125 -2.25 1.125 0 0 Z " fill="#F2A595" transform="translate(858,533)"/>
<path d="M0 0 C0.99 0 1.98 0 3 0 C3 0.66 3 1.32 3 2 C3.99 2 4.98 2 6 2 C6.33 2.99 6.66 3.98 7 5 C4.69 4.67 2.38 4.34 0 4 C0 2.68 0 1.36 0 0 Z " fill="#F2A295" transform="translate(375,517)"/>
<path d="M0 0 C-1.28524261 0.86380259 -2.57842419 1.71580369 -3.875 2.5625 C-4.59429687 3.03816406 -5.31359375 3.51382812 -6.0546875 4.00390625 C-6.69664062 4.33261719 -7.33859375 4.66132813 -8 5 C-8.66 4.67 -9.32 4.34 -10 4 C-9.01 3.67 -8.02 3.34 -7 3 C-6.67 2.01 -6.34 1.02 -6 0 C-3.50907189 -1.24546405 -2.58919267 -0.7767578 0 0 Z " fill="#F3A595" transform="translate(274,455)"/>
<path d="M0 0 C0.99 0.33 1.98 0.66 3 1 C3 1.99 3 2.98 3 4 C0.03 3.67 -2.94 3.34 -6 3 C-4 2 -2 1 0 0 Z " fill="#EEA094" transform="translate(774,578)"/>
<path d="M0 0 C0.66 0.33 1.32 0.66 2 1 C1.01 1.33 0.02 1.66 -1 2 C-1.73323796 4.01508358 -1.73323796 4.01508358 -2 6 C-3.32 5.67 -4.64 5.34 -6 5 C-2.25 1.125 -2.25 1.125 0 0 Z " fill="#EC9083" transform="translate(782,574)"/>
<path d="M0 0 C1.231394 3.69418201 0.64432764 6.2056261 0 10 C-0.99 10.33 -1.98 10.66 -3 11 C-2.69078116 9.54096742 -2.37751201 8.08279278 -2.0625 6.625 C-1.88847656 5.81289063 -1.71445312 5.00078125 -1.53515625 4.1640625 C-1 2 -1 2 0 0 Z " fill="#F5AC9F" transform="translate(666,530)"/>
<path d="M0 0 C0.99 0.33 1.98 0.66 3 1 C0.47211993 3.79872437 -1.20411134 5.45773019 -5 6 C-3.63016497 2.83884224 -3.0109362 2.0072908 0 0 Z " fill="#F3A799" transform="translate(721,392)"/>
<path d="M0 0 C1.98 1.65 3.96 3.3 6 5 C4.125 5.625 4.125 5.625 2 6 C1.34 5.34 0.68 4.68 0 4 C0 2.68 0 1.36 0 0 Z " fill="#EF907E" transform="translate(140,514)"/>
<path d="M0 0 C0 3.90838866 -1.50567876 5.11594107 -4 8 C-4.66 7.67 -5.32 7.34 -6 7 C-2.25 1.125 -2.25 1.125 0 0 Z " fill="#F1AB9D" transform="translate(892,511)"/>
<path d="M0 0 C2.875 0.25 2.875 0.25 6 1 C7.375 3.0625 7.375 3.0625 8 5 C4.62496331 3.8141763 2.35277269 2.72426311 0 0 Z " fill="#F3A090" transform="translate(402,446)"/>
<path d="M0 0 C1.0326802 2.78823655 1.04509293 3.8677274 0.0625 6.75 C-0.288125 7.4925 -0.63875 8.235 -1 9 C-2.0625 7.1875 -2.0625 7.1875 -3 5 C-2.67 4.01 -2.34 3.02 -2 2 C-1.34 2 -0.68 2 0 2 C0 1.34 0 0.68 0 0 Z " fill="#F2A395" transform="translate(445,553)"/>
<path d="M0 0 C1.31571603 0.2547514 2.62760376 0.52934141 3.9375 0.8125 C4.66839844 0.96332031 5.39929688 1.11414063 6.15234375 1.26953125 C6.76207031 1.51058594 7.37179687 1.75164063 8 2 C8.33 2.99 8.66 3.98 9 5 C5.22454612 3.90931332 2.52956528 3.0916909 0 0 Z " fill="#EE8876" transform="translate(255,542)"/>
<path d="M0 0 C-5.2734375 3.22265625 -5.2734375 3.22265625 -7 4 C-7.66 3.67 -8.32 3.34 -9 3 C-6.38220849 -0.01046024 -3.86655673 -1.93327837 0 0 Z " fill="#F1AA9C" transform="translate(880,524)"/>
<path d="M0 0 C-5.2734375 3.22265625 -5.2734375 3.22265625 -7 4 C-7.66 3.67 -8.32 3.34 -9 3 C-6.38220849 -0.01046024 -3.86655673 -1.93327837 0 0 Z " fill="#F08A76" transform="translate(827,514)"/>
<path d="M0 0 C1.65 1.65 3.3 3.3 5 5 C4.67 5.66 4.34 6.32 4 7 C3.566875 6.525625 3.13375 6.05125 2.6875 5.5625 C0.97690387 3.76313043 0.97690387 3.76313043 -2 3 C-1 1 -1 1 0 0 Z " fill="#F2ACA2" transform="translate(437,511)"/>
<path d="M0 0 C0.66 1.32 1.32 2.64 2 4 C1.01 4.99 0.02 5.98 -1 7 C-1.66 6.67 -2.32 6.34 -3 6 C-2.42655063 3.13275314 -2.1385485 2.1385485 0 0 Z " fill="#F0A296" transform="translate(632,451)"/>
<path d="M0 0 C3.77545388 1.09068668 6.47043472 1.9083091 9 5 C7.68428397 4.7452486 6.37239624 4.47065859 5.0625 4.1875 C4.33160156 4.03667969 3.60070312 3.88585937 2.84765625 3.73046875 C2.23792969 3.48941406 1.62820313 3.24835938 1 3 C0.67 2.01 0.34 1.02 0 0 Z " fill="#F4AA9B" transform="translate(805,439)"/>
<path d="M0 0 C1.31571603 0.2547514 2.62760376 0.52934141 3.9375 0.8125 C4.66839844 0.96332031 5.39929688 1.11414063 6.15234375 1.26953125 C6.76207031 1.51058594 7.37179687 1.75164062 8 2 C8.33 2.99 8.66 3.98 9 5 C5.22454612 3.90931332 2.52956528 3.0916909 0 0 Z " fill="#ED8874" transform="translate(790,432)"/>
<path d="M0 0 C-2.31 1.65 -4.62 3.3 -7 5 C-7.66 4.67 -8.32 4.34 -9 4 C-6.56225426 0.2214941 -6.56225426 0.2214941 -3.9375 -0.8125 C-2 -1 -2 -1 0 0 Z " fill="#EE8773" transform="translate(333,412)"/>
<path d="" fill="#F5A69B" transform="translate(0,0)"/>
<path d="M0 0 C2 1 2 1 2 1 Z " fill="#F0A298" transform="translate(475,558)"/>
<path d="" fill="#ED9C92" transform="translate(0,0)"/>
<path d="" fill="#F1A096" transform="translate(0,0)"/>
<path d="M0 0 C2 1 2 1 2 1 Z " fill="#F4A196" transform="translate(420,455)"/>
<path d="" fill="#F1A298" transform="translate(0,0)"/>
<path d="M0 0 C2 1 2 1 2 1 Z " fill="#F29E92" transform="translate(587,446)"/>
<path d="" fill="#898A89" transform="translate(0,0)"/>
<path d="" fill="#EEA397" transform="translate(0,0)"/>
<path d="" fill="#EF9D93" transform="translate(0,0)"/>
<path d="" fill="#EFA398" transform="translate(0,0)"/>
<path d="" fill="#EF9F96" transform="translate(0,0)"/>
<path d="" fill="#EBA298" transform="translate(0,0)"/>
<path d="" fill="#EE9E94" transform="translate(0,0)"/>
<path d="" fill="#ED9E94" transform="translate(0,0)"/>
<path d="" fill="#F09C91" transform="translate(0,0)"/>
<path d="" fill="#F0A397" transform="translate(0,0)"/>
<path d="" fill="#EDA297" transform="translate(0,0)"/>
<path d="" fill="#EEA095" transform="translate(0,0)"/>
<path d="" fill="#EEA398" transform="translate(0,0)"/>
<path d="" fill="#F2A298" transform="translate(0,0)"/>
<path d="" fill="#ECA399" transform="translate(0,0)"/>
<path d="" fill="#F4A297" transform="translate(0,0)"/>
<path d="" fill="#EC9B8E" transform="translate(0,0)"/>
<path d="" fill="#E9A095" transform="translate(0,0)"/>
<path d="" fill="#EBA198" transform="translate(0,0)"/>
<path d="" fill="#EDA095" transform="translate(0,0)"/>
<path d="" fill="#EBA097" transform="translate(0,0)"/>
<path d="" fill="#ED9D96" transform="translate(0,0)"/>
<path d="" fill="#ECA196" transform="translate(0,0)"/>
<path d="" fill="#ECA399" transform="translate(0,0)"/>
<path d="" fill="#F2A296" transform="translate(0,0)"/>
<path d="" fill="#F1A299" transform="translate(0,0)"/>
<path d="" fill="#F2A195" transform="translate(0,0)"/>
<path d="" fill="#EEA99B" transform="translate(0,0)"/>
<path d="" fill="#EFA097" transform="translate(0,0)"/>
<path d="" fill="#F0A095" transform="translate(0,0)"/>
<path d="" fill="#EDA297" transform="translate(0,0)"/>
<path d="" fill="#E5A39A" transform="translate(0,0)"/>
<path d="" fill="#F5A497" transform="translate(0,0)"/>
<path d="" fill="#F09F93" transform="translate(0,0)"/>
<path d="" fill="#F2A39A" transform="translate(0,0)"/>
<path d="" fill="#F2A198" transform="translate(0,0)"/>
<path d="" fill="#F19F93" transform="translate(0,0)"/>
<path d="" fill="#F0A399" transform="translate(0,0)"/>
<path d="" fill="#F49D93" transform="translate(0,0)"/>
<path d="" fill="#F3A49A" transform="translate(0,0)"/>
<path d="" fill="#F2A398" transform="translate(0,0)"/>
<path d="" fill="#E7A29A" transform="translate(0,0)"/>
<path d="" fill="#F2A298" transform="translate(0,0)"/>
<path d="" fill="#F3A297" transform="translate(0,0)"/>
<path d="" fill="#F3A398" transform="translate(0,0)"/>
<path d="" fill="#EBA197" transform="translate(0,0)"/>
<path d="" fill="#E9A49B" transform="translate(0,0)"/>
<path d="" fill="#EDA196" transform="translate(0,0)"/>
<path d="" fill="#F0A399" transform="translate(0,0)"/>
<path d="" fill="#F09E95" transform="translate(0,0)"/>
<path d="" fill="#EDA198" transform="translate(0,0)"/>
<path d="" fill="#EBA399" transform="translate(0,0)"/>
<path d="" fill="#F3A49A" transform="translate(0,0)"/>
<path d="" fill="#F3A69B" transform="translate(0,0)"/>
<path d="" fill="#F3A399" transform="translate(0,0)"/>
<path d="" fill="#F2A194" transform="translate(0,0)"/>
<path d="" fill="#F29D93" transform="translate(0,0)"/>
<path d="" fill="#F4A497" transform="translate(0,0)"/>
<path d="" fill="#F2A599" transform="translate(0,0)"/>
<path d="" fill="#F2A49A" transform="translate(0,0)"/>
<path d="" fill="#F3A398" transform="translate(0,0)"/>
<path d="" fill="#EDA79B" transform="translate(0,0)"/>
<path d="" fill="#F09D92" transform="translate(0,0)"/>
<path d="" fill="#ECA198" transform="translate(0,0)"/>
<path d="" fill="#EF9D91" transform="translate(0,0)"/>
<path d="" fill="#F2A498" transform="translate(0,0)"/>
<path d="" fill="#F1A49C" transform="translate(0,0)"/>
<path d="" fill="#F1A499" transform="translate(0,0)"/>
<path d="" fill="#F1A49A" transform="translate(0,0)"/>
<path d="" fill="#ECA298" transform="translate(0,0)"/>
<path d="" fill="#EDA599" transform="translate(0,0)"/>
<path d="" fill="#EDA698" transform="translate(0,0)"/>
<path d="" fill="#EB9A8F" transform="translate(0,0)"/>
<path d="" fill="#EEA39B" transform="translate(0,0)"/>
<path d="" fill="#EBA296" transform="translate(0,0)"/>
<path d="" fill="#ECA097" transform="translate(0,0)"/>
<path d="" fill="#E9A095" transform="translate(0,0)"/>
<path d="" fill="#EDA296" transform="translate(0,0)"/>
<path d="" fill="#EBA196" transform="translate(0,0)"/>
<path d="" fill="#EDA194" transform="translate(0,0)"/>
<path d="" fill="#EA9E92" transform="translate(0,0)"/>
<path d="" fill="#EC9F94" transform="translate(0,0)"/>
<path d="" fill="#EBA299" transform="translate(0,0)"/>
</svg>
